<mxfile host="172.30.98.44" agent="Mozilla/5.0 (Windows NT 10.0; Win64; x64; rv:130.0) Gecko/20100101 Firefox/130.0" version="24.7.8">
  <diagram name="Page-1" id="5g2IYOBfaPMkdyOMywGV">
    <mxGraphModel dx="2359" dy="951" grid="1" gridSize="10" guides="1" tooltips="1" connect="1" arrows="1" fold="1" page="1" pageScale="1" pageWidth="2336" pageHeight="1654" math="0" shadow="0">
      <root>
        <mxCell id="0" />
        <mxCell id="1" parent="0" />
        <mxCell id="DR0ykpURiAhLByMEY7of-1" value="&lt;h1 style=&quot;margin-top: 0px;&quot;&gt;GK Tx &lt;font style=&quot;font-size: 12px;&quot;&gt;(Frameless)&lt;/font&gt;&lt;br&gt;&lt;/h1&gt;&lt;p&gt;Protocol for treatment day on the GK involving check-in, setup, imaging, treatment, and documentation.&lt;br&gt;&lt;/p&gt;" style="text;html=1;whiteSpace=wrap;overflow=hidden;rounded=0;" vertex="1" parent="1">
          <mxGeometry x="30" y="40" width="180" height="120" as="geometry" />
        </mxCell>
        <mxCell id="DR0ykpURiAhLByMEY7of-13" value="" style="edgeStyle=orthogonalEdgeStyle;rounded=0;orthogonalLoop=1;jettySize=auto;html=1;" edge="1" parent="1" source="DR0ykpURiAhLByMEY7of-2" target="DR0ykpURiAhLByMEY7of-12">
          <mxGeometry relative="1" as="geometry" />
        </mxCell>
        <mxCell id="DR0ykpURiAhLByMEY7of-2" value="&lt;div&gt;Patient Checks in &lt;br&gt;&lt;/div&gt;&lt;div&gt;(Q in Mosaiq)&lt;br&gt;&lt;/div&gt;" style="strokeWidth=2;html=1;shape=mxgraph.flowchart.start_2;whiteSpace=wrap;" vertex="1" parent="1">
          <mxGeometry x="535" y="50" width="100" height="100" as="geometry" />
        </mxCell>
        <mxCell id="DR0ykpURiAhLByMEY7of-3" value="" style="endArrow=classic;html=1;rounded=0;exitX=1;exitY=0.5;exitDx=0;exitDy=0;" edge="1" parent="1" source="DR0ykpURiAhLByMEY7of-11">
          <mxGeometry relative="1" as="geometry">
            <mxPoint x="430" y="100" as="sourcePoint" />
            <mxPoint x="530" y="100" as="targetPoint" />
          </mxGeometry>
        </mxCell>
        <mxCell id="DR0ykpURiAhLByMEY7of-4" value="if first patient" style="edgeLabel;resizable=0;html=1;;align=center;verticalAlign=middle;" connectable="0" vertex="1" parent="DR0ykpURiAhLByMEY7of-3">
          <mxGeometry relative="1" as="geometry" />
        </mxCell>
        <mxCell id="DR0ykpURiAhLByMEY7of-11" value="Daily QA &amp;amp; Warmup" style="shape=process;whiteSpace=wrap;html=1;backgroundOutline=1;strokeWidth=2;fillColor=#fff2cc;strokeColor=#d6b656;" vertex="1" parent="1">
          <mxGeometry x="300" y="70" width="120" height="60" as="geometry" />
        </mxCell>
        <mxCell id="DR0ykpURiAhLByMEY7of-20" value="" style="edgeStyle=orthogonalEdgeStyle;rounded=0;orthogonalLoop=1;jettySize=auto;html=1;" edge="1" parent="1" source="DR0ykpURiAhLByMEY7of-12" target="DR0ykpURiAhLByMEY7of-19">
          <mxGeometry relative="1" as="geometry" />
        </mxCell>
        <mxCell id="DR0ykpURiAhLByMEY7of-12" value="RTT brings patient to GK Vault" style="rounded=1;whiteSpace=wrap;html=1;strokeWidth=2;" vertex="1" parent="1">
          <mxGeometry x="525" y="250" width="120" height="60" as="geometry" />
        </mxCell>
        <mxCell id="DR0ykpURiAhLByMEY7of-16" value="AMP and AU are required for treatment" style="text;html=1;align=center;verticalAlign=middle;whiteSpace=wrap;rounded=0;fontColor=#FF3333;" vertex="1" parent="1">
          <mxGeometry x="690" y="230" width="160" height="100" as="geometry" />
        </mxCell>
        <mxCell id="DR0ykpURiAhLByMEY7of-22" value="" style="edgeStyle=orthogonalEdgeStyle;rounded=0;orthogonalLoop=1;jettySize=auto;html=1;" edge="1" parent="1" source="DR0ykpURiAhLByMEY7of-19" target="DR0ykpURiAhLByMEY7of-21">
          <mxGeometry relative="1" as="geometry" />
        </mxCell>
        <mxCell id="DR0ykpURiAhLByMEY7of-19" value="&lt;div&gt;Patient Setup for Tx&lt;/div&gt;&lt;div&gt;&lt;br&gt;&lt;/div&gt;" style="shape=process;whiteSpace=wrap;html=1;backgroundOutline=1;rounded=1;strokeWidth=2;fillColor=#fff2cc;strokeColor=#d6b656;" vertex="1" parent="1">
          <mxGeometry x="525" y="330" width="120" height="60" as="geometry" />
        </mxCell>
        <mxCell id="DR0ykpURiAhLByMEY7of-27" value="" style="edgeStyle=orthogonalEdgeStyle;rounded=0;orthogonalLoop=1;jettySize=auto;html=1;" edge="1" parent="1" source="DR0ykpURiAhLByMEY7of-21" target="DR0ykpURiAhLByMEY7of-26">
          <mxGeometry relative="1" as="geometry" />
        </mxCell>
        <mxCell id="DR0ykpURiAhLByMEY7of-41" value="" style="edgeStyle=orthogonalEdgeStyle;rounded=0;orthogonalLoop=1;jettySize=auto;html=1;" edge="1" parent="1" source="DR0ykpURiAhLByMEY7of-21" target="DR0ykpURiAhLByMEY7of-40">
          <mxGeometry relative="1" as="geometry" />
        </mxCell>
        <mxCell id="DR0ykpURiAhLByMEY7of-21" value="CBCT image acquired" style="rounded=1;whiteSpace=wrap;html=1;strokeWidth=2;" vertex="1" parent="1">
          <mxGeometry x="525" y="430" width="120" height="60" as="geometry" />
        </mxCell>
        <mxCell id="DR0ykpURiAhLByMEY7of-26" value="&lt;div&gt;CBCT Alignment &amp;amp;&amp;nbsp;&lt;/div&gt;&lt;div&gt;Plan Verification&lt;/div&gt;" style="shape=process;whiteSpace=wrap;html=1;backgroundOutline=1;rounded=1;strokeWidth=2;fillColor=#fff2cc;strokeColor=#d6b656;" vertex="1" parent="1">
          <mxGeometry x="525" y="540" width="120" height="60" as="geometry" />
        </mxCell>
        <mxCell id="DR0ykpURiAhLByMEY7of-30" value="&amp;nbsp;alignment/plan okay?" style="strokeWidth=2;html=1;shape=mxgraph.flowchart.decision;whiteSpace=wrap;" vertex="1" parent="1">
          <mxGeometry x="740" y="510" width="120" height="120" as="geometry" />
        </mxCell>
        <mxCell id="DR0ykpURiAhLByMEY7of-31" style="edgeStyle=orthogonalEdgeStyle;rounded=0;orthogonalLoop=1;jettySize=auto;html=1;entryX=0;entryY=0.5;entryDx=0;entryDy=0;entryPerimeter=0;" edge="1" parent="1" source="DR0ykpURiAhLByMEY7of-26" target="DR0ykpURiAhLByMEY7of-30">
          <mxGeometry relative="1" as="geometry" />
        </mxCell>
        <mxCell id="DR0ykpURiAhLByMEY7of-35" style="edgeStyle=orthogonalEdgeStyle;rounded=0;orthogonalLoop=1;jettySize=auto;html=1;entryX=1;entryY=0.5;entryDx=0;entryDy=0;" edge="1" parent="1" source="DR0ykpURiAhLByMEY7of-34" target="DR0ykpURiAhLByMEY7of-21">
          <mxGeometry relative="1" as="geometry" />
        </mxCell>
        <mxCell id="DR0ykpURiAhLByMEY7of-36" style="edgeStyle=orthogonalEdgeStyle;rounded=0;orthogonalLoop=1;jettySize=auto;html=1;" edge="1" parent="1" source="DR0ykpURiAhLByMEY7of-34" target="DR0ykpURiAhLByMEY7of-19">
          <mxGeometry relative="1" as="geometry" />
        </mxCell>
        <mxCell id="DR0ykpURiAhLByMEY7of-34" value="" style="shape=xor;whiteSpace=wrap;html=1;" vertex="1" parent="1">
          <mxGeometry x="690" y="360" width="60" height="80" as="geometry" />
        </mxCell>
        <mxCell id="DR0ykpURiAhLByMEY7of-37" style="edgeStyle=orthogonalEdgeStyle;rounded=0;orthogonalLoop=1;jettySize=auto;html=1;entryX=1;entryY=0.5;entryDx=0;entryDy=0;entryPerimeter=0;" edge="1" parent="1" source="DR0ykpURiAhLByMEY7of-30" target="DR0ykpURiAhLByMEY7of-34">
          <mxGeometry relative="1" as="geometry" />
        </mxCell>
        <mxCell id="DR0ykpURiAhLByMEY7of-38" value="No" style="edgeLabel;html=1;align=center;verticalAlign=middle;resizable=0;points=[];" vertex="1" connectable="0" parent="DR0ykpURiAhLByMEY7of-37">
          <mxGeometry x="-0.2726" relative="1" as="geometry">
            <mxPoint as="offset" />
          </mxGeometry>
        </mxCell>
        <mxCell id="DR0ykpURiAhLByMEY7of-40" value="&amp;nbsp;HDMM is baselined" style="rounded=1;whiteSpace=wrap;html=1;strokeWidth=2;" vertex="1" parent="1">
          <mxGeometry x="325" y="430" width="120" height="60" as="geometry" />
        </mxCell>
        <mxCell id="DR0ykpURiAhLByMEY7of-49" value="" style="edgeStyle=orthogonalEdgeStyle;rounded=0;orthogonalLoop=1;jettySize=auto;html=1;" edge="1" parent="1" source="DR0ykpURiAhLByMEY7of-42" target="DR0ykpURiAhLByMEY7of-48">
          <mxGeometry relative="1" as="geometry" />
        </mxCell>
        <mxCell id="DR0ykpURiAhLByMEY7of-50" value="yes" style="edgeLabel;html=1;align=center;verticalAlign=middle;resizable=0;points=[];" vertex="1" connectable="0" parent="DR0ykpURiAhLByMEY7of-49">
          <mxGeometry x="-0.3661" y="1" relative="1" as="geometry">
            <mxPoint as="offset" />
          </mxGeometry>
        </mxCell>
        <mxCell id="DR0ykpURiAhLByMEY7of-42" value="&lt;div&gt;is HDMM&amp;nbsp;&lt;/div&gt;&lt;div&gt;within tolerance &lt;font style=&quot;font-size: 8px;&quot;&gt;&lt;br&gt;&lt;/font&gt;&lt;/div&gt;&lt;div&gt;&lt;font style=&quot;font-size: 8px;&quot;&gt;(currently = 1.5mm)&lt;/font&gt;&lt;/div&gt;" style="strokeWidth=2;html=1;shape=mxgraph.flowchart.decision;whiteSpace=wrap;" vertex="1" parent="1">
          <mxGeometry x="730" y="700" width="140" height="140" as="geometry" />
        </mxCell>
        <mxCell id="DR0ykpURiAhLByMEY7of-43" style="edgeStyle=orthogonalEdgeStyle;rounded=0;orthogonalLoop=1;jettySize=auto;html=1;entryX=0.5;entryY=0;entryDx=0;entryDy=0;entryPerimeter=0;exitX=0.5;exitY=1;exitDx=0;exitDy=0;exitPerimeter=0;" edge="1" parent="1" source="DR0ykpURiAhLByMEY7of-30" target="DR0ykpURiAhLByMEY7of-42">
          <mxGeometry relative="1" as="geometry">
            <mxPoint x="800" y="670" as="sourcePoint" />
          </mxGeometry>
        </mxCell>
        <mxCell id="DR0ykpURiAhLByMEY7of-44" style="edgeStyle=orthogonalEdgeStyle;rounded=0;orthogonalLoop=1;jettySize=auto;html=1;exitX=1;exitY=0.5;exitDx=0;exitDy=0;exitPerimeter=0;" edge="1" parent="1" source="DR0ykpURiAhLByMEY7of-42">
          <mxGeometry relative="1" as="geometry">
            <mxPoint x="650" y="460" as="targetPoint" />
            <Array as="points">
              <mxPoint x="990" y="770" />
              <mxPoint x="990" y="460" />
            </Array>
          </mxGeometry>
        </mxCell>
        <mxCell id="DR0ykpURiAhLByMEY7of-45" value="no" style="edgeLabel;html=1;align=center;verticalAlign=middle;resizable=0;points=[];" vertex="1" connectable="0" parent="DR0ykpURiAhLByMEY7of-44">
          <mxGeometry x="-0.8831" y="2" relative="1" as="geometry">
            <mxPoint as="offset" />
          </mxGeometry>
        </mxCell>
        <mxCell id="DR0ykpURiAhLByMEY7of-48" value="&lt;div&gt;Initiate Tx &lt;br&gt;&lt;/div&gt;&lt;div&gt;BEAM ON&lt;br&gt;&lt;/div&gt;" style="whiteSpace=wrap;html=1;strokeWidth=2;" vertex="1" parent="1">
          <mxGeometry x="740" y="940" width="120" height="60" as="geometry" />
        </mxCell>
        <mxCell id="DR0ykpURiAhLByMEY7of-53" style="edgeStyle=orthogonalEdgeStyle;rounded=0;orthogonalLoop=1;jettySize=auto;html=1;entryX=1;entryY=0.5;entryDx=0;entryDy=0;" edge="1" parent="1" source="DR0ykpURiAhLByMEY7of-51" target="DR0ykpURiAhLByMEY7of-21">
          <mxGeometry relative="1" as="geometry">
            <Array as="points">
              <mxPoint x="1080" y="1140" />
              <mxPoint x="1080" y="460" />
            </Array>
          </mxGeometry>
        </mxCell>
        <mxCell id="DR0ykpURiAhLByMEY7of-54" value="yes" style="edgeLabel;html=1;align=center;verticalAlign=middle;resizable=0;points=[];" vertex="1" connectable="0" parent="DR0ykpURiAhLByMEY7of-53">
          <mxGeometry x="-0.8905" y="-4" relative="1" as="geometry">
            <mxPoint as="offset" />
          </mxGeometry>
        </mxCell>
        <mxCell id="DR0ykpURiAhLByMEY7of-56" style="edgeStyle=orthogonalEdgeStyle;rounded=0;orthogonalLoop=1;jettySize=auto;html=1;" edge="1" parent="1" source="DR0ykpURiAhLByMEY7of-51">
          <mxGeometry relative="1" as="geometry">
            <mxPoint x="800" y="1360" as="targetPoint" />
          </mxGeometry>
        </mxCell>
        <mxCell id="DR0ykpURiAhLByMEY7of-57" value="yes" style="edgeLabel;html=1;align=center;verticalAlign=middle;resizable=0;points=[];" vertex="1" connectable="0" parent="DR0ykpURiAhLByMEY7of-56">
          <mxGeometry x="-0.0178" y="-1" relative="1" as="geometry">
            <mxPoint as="offset" />
          </mxGeometry>
        </mxCell>
        <mxCell id="DR0ykpURiAhLByMEY7of-51" value="&lt;div&gt;HDMM out of tolerance&lt;br&gt;&lt;/div&gt;&lt;div&gt;or &lt;br&gt;&lt;/div&gt;&lt;div&gt;Patient Alert&lt;br&gt;&lt;/div&gt;" style="strokeWidth=2;html=1;shape=mxgraph.flowchart.decision;whiteSpace=wrap;" vertex="1" parent="1">
          <mxGeometry x="720" y="1060" width="160" height="160" as="geometry" />
        </mxCell>
        <mxCell id="DR0ykpURiAhLByMEY7of-52" style="edgeStyle=orthogonalEdgeStyle;rounded=0;orthogonalLoop=1;jettySize=auto;html=1;entryX=0.5;entryY=0;entryDx=0;entryDy=0;entryPerimeter=0;" edge="1" parent="1" source="DR0ykpURiAhLByMEY7of-48" target="DR0ykpURiAhLByMEY7of-51">
          <mxGeometry relative="1" as="geometry" />
        </mxCell>
        <mxCell id="DR0ykpURiAhLByMEY7of-55" value="Treatment Complete" style="strokeWidth=2;html=1;shape=mxgraph.flowchart.terminator;whiteSpace=wrap;" vertex="1" parent="1">
          <mxGeometry x="750" y="1370" width="100" height="60" as="geometry" />
        </mxCell>
        <mxCell id="DR0ykpURiAhLByMEY7of-58" value="Generally advisable for patients to meet with Physician - instructions at home for release (steroids, who to contacts, follow up info, etc.)" style="text;html=1;align=center;verticalAlign=middle;whiteSpace=wrap;rounded=0;fontColor=#FF3333;fontSize=18;" vertex="1" parent="1">
          <mxGeometry x="970" y="1336.25" width="282" height="127.5" as="geometry" />
        </mxCell>
      </root>
    </mxGraphModel>
  </diagram>
</mxfile>
